<?xml version="1.0" standalone="no"?><svg xmlns="http://www.w3.org/2000/svg" viewBox="0 0 1440 320"><path fill="black" fill-opacity="1" d="M0,320L20,304C40,288,80,256,120,213.3C160,171,200,117,240,90.7C280,64,320,64,360,101.3C400,139,440,213,480,202.7C520,192,560,96,600,85.3C640,75,680,149,720,192C760,235,800,245,840,250.7C880,256,920,256,960,218.7C1000,181,1040,107,1080,69.3C1120,32,1160,32,1200,48C1240,64,1280,96,1320,117.3C1360,139,1400,149,1420,154.7L1440,160L1440,0L1420,0C1400,0,1360,0,1320,0C1280,0,1240,0,1200,0C1160,0,1120,0,1080,0C1040,0,1000,0,960,0C920,0,880,0,840,0C800,0,760,0,720,0C680,0,640,0,600,0C560,0,520,0,480,0C440,0,400,0,360,0C320,0,280,0,240,0C200,0,160,0,120,0C80,0,40,0,20,0L0,0Z"></path></svg>